<?xml version="1.0" standalone="no"?>
<!DOCTYPE svg PUBLIC "-//W3C//DTD SVG 20010904//EN"
 "http://www.w3.org/TR/2001/REC-SVG-20010904/DTD/svg10.dtd">
<svg version="1.0" xmlns="http://www.w3.org/2000/svg"
 width="500.000000pt" height="500.000000pt" viewBox="0 0 500.000000 500.000000"
 preserveAspectRatio="xMidYMid meet">
<metadata>
Created by potrace 1.14, written by Peter Selinger 2001-2017
</metadata>
<g transform="translate(0.000000,500.000000) scale(0.100000,-0.100000)"
fill="#000000" stroke="none">
<path d="M2427 4874 c-1 -1 -47 -4 -102 -8 -55 -3 -113 -8 -130 -11 -59 -10
-90 -15 -129 -21 -60 -9 -68 -11 -193 -44 -305 -81 -612 -234 -843 -419 -24
-20 -56 -45 -70 -56 -47 -37 -256 -250 -301 -305 -24 -30 -46 -57 -49 -60 -17
-15 -126 -178 -170 -255 -152 -263 -267 -590 -295 -841 -4 -32 -9 -61 -10 -64
-5 -7 -18 -223 -18 -285 0 -63 13 -287 17 -294 2 -4 7 -30 10 -59 3 -30 11
-73 16 -95 5 -23 12 -57 15 -76 3 -19 8 -38 11 -43 3 -5 7 -19 9 -31 10 -82
98 -315 182 -479 114 -225 254 -418 433 -597 121 -122 146 -144 261 -228 243
-179 521 -315 789 -387 110 -29 148 -37 295 -61 91 -16 230 -23 392 -20 100 2
186 6 190 8 4 3 37 8 73 11 175 18 443 94 636 180 358 158 682 412 920 721
268 348 436 769 481 1210 9 89 10 367 1 465 -41 442 -221 888 -508 1251 -82
104 -252 276 -350 354 -41 33 -77 62 -80 65 -24 25 -338 220 -354 220 -3 0
-38 16 -80 35 -156 73 -413 155 -561 179 -105 18 -161 24 -264 32 -78 6 -220
11 -224 8z m223 -98 c354 -23 709 -136 1018 -322 69 -42 169 -110 182 -124 3
-3 30 -24 60 -46 269 -201 545 -568 687 -914 62 -150 118 -343 138 -475 2 -16
6 -41 9 -55 34 -186 28 -549 -14 -755 -6 -27 -12 -60 -15 -73 -2 -12 -11 -50
-20 -85 -9 -34 -18 -69 -20 -77 -2 -8 -15 -46 -28 -85 -98 -278 -240 -527
-425 -745 -136 -159 -354 -346 -540 -463 -203 -127 -509 -247 -747 -292 -22
-5 -44 -9 -50 -10 -189 -37 -536 -40 -750 -6 -759 121 -1402 608 -1722 1306
-35 78 -97 238 -108 285 -3 8 -13 49 -24 90 -19 68 -39 162 -46 215 -22 153
-25 189 -24 355 0 150 1 184 14 280 3 25 8 59 10 75 37 301 193 685 388 960
256 359 563 605 1002 800 112 50 373 122 510 140 86 12 107 14 205 21 52 3 96
7 97 8 3 2 119 -2 213 -8z"/>
<path d="M2348 4725 c-2 -1 -39 -6 -83 -9 -44 -4 -87 -9 -95 -11 -8 -2 -33 -7
-55 -10 -92 -13 -238 -49 -330 -82 -38 -14 -77 -26 -85 -28 -33 -7 -249 -111
-325 -156 -16 -10 -43 -26 -60 -35 -33 -18 -192 -130 -211 -148 -6 -6 -31 -27
-54 -46 -60 -48 -194 -182 -261 -260 -235 -275 -415 -646 -484 -1001 -45 -228
-53 -566 -19 -759 3 -19 8 -48 10 -65 2 -16 7 -43 11 -60 8 -34 7 -29 17 -75
4 -19 21 -80 38 -135 116 -382 350 -743 654 -1011 73 -64 199 -164 206 -164 3
0 43 -25 89 -55 113 -74 298 -164 442 -214 64 -22 127 -43 140 -45 12 -2 60
-13 107 -24 82 -20 199 -40 230 -40 8 0 44 -3 80 -7 193 -22 443 -4 665 46
426 97 786 296 1091 605 291 293 481 629 584 1034 12 47 23 99 25 115 1 17 5
41 9 55 13 50 31 277 30 375 -1 138 -11 240 -39 400 -37 211 -139 490 -247
677 -68 117 -93 155 -161 247 -291 391 -740 693 -1213 816 -56 14 -110 27
-120 29 -34 6 -158 25 -209 32 -51 6 -371 14 -377 9z m430 -29 c17 -3 42 -7
55 -10 12 -2 49 -9 82 -15 33 -6 85 -18 115 -27 30 -8 66 -17 80 -20 75 -15
349 -129 433 -181 20 -13 37 -21 37 -18 0 10 208 -134 306 -213 84 -67 246
-226 307 -301 53 -66 134 -181 182 -261 56 -90 148 -270 160 -312 4 -13 13
-36 20 -53 29 -68 88 -271 100 -350 3 -16 7 -41 10 -55 22 -119 28 -197 29
-370 1 -174 -5 -248 -30 -395 -18 -108 -61 -276 -84 -330 -4 -11 -23 -58 -41
-105 -56 -147 -200 -404 -282 -506 -152 -187 -266 -303 -417 -421 -287 -224
-696 -397 -1035 -439 -22 -2 -56 -7 -75 -11 -55 -9 -378 -12 -445 -3 -33 5
-80 11 -105 14 -67 8 -146 23 -240 47 -25 6 -49 12 -55 13 -92 21 -343 121
-396 158 -14 9 -28 15 -31 12 -3 -2 -11 2 -18 11 -7 8 -18 15 -25 15 -6 0 -31
14 -53 30 -23 17 -44 30 -47 30 -11 0 -177 118 -232 164 -88 75 -263 251 -303
304 -19 26 -41 53 -48 60 -6 7 -45 64 -86 125 -190 286 -319 637 -352 952 -3
28 -7 70 -10 95 -5 55 -6 304 0 345 2 17 7 62 12 100 4 39 8 72 9 75 1 3 7 39
14 80 14 77 69 274 97 345 9 22 20 49 24 60 48 124 218 424 285 504 256 308
465 481 761 632 171 87 422 176 549 194 22 3 46 8 54 11 7 2 34 7 60 10 25 4
71 10 101 14 58 8 473 5 528 -4z"/>
<path d="M2410 4621 c-38 -5 -41 -8 -22 -14 12 -5 22 -14 23 -20 1 -7 3 -49 5
-94 3 -67 1 -83 -11 -83 -7 0 -16 -4 -20 -9 -3 -6 18 -9 50 -9 30 1 55 5 55
10 0 4 -7 8 -15 8 -8 0 -15 6 -16 13 0 6 -1 50 -2 97 -2 82 -1 84 23 91 14 4
20 7 13 8 -6 1 -17 3 -25 4 -7 2 -33 1 -58 -2z"/>
<path d="M2535 4620 c-4 -6 0 -10 8 -10 20 0 24 -15 21 -85 -1 -33 -2 -72 -3
-87 -1 -18 -7 -28 -16 -28 -8 0 -15 -4 -15 -8 0 -5 23 -10 50 -11 28 -1 50 3
50 9 0 5 -6 9 -12 8 -9 -2 -14 12 -15 40 -3 58 23 56 61 -6 16 -26 31 -49 32
-50 1 -2 19 -7 38 -12 36 -8 51 4 19 14 -10 4 -32 28 -50 55 l-32 49 29 11
c39 13 51 55 23 82 -14 14 -38 21 -89 25 -38 3 -74 7 -81 9 -7 2 -15 0 -18 -5z
m133 -25 c16 -5 22 -14 22 -35 0 -32 -23 -50 -63 -50 -23 0 -25 3 -22 38 2 20
4 43 4 50 1 8 8 11 19 8 9 -2 27 -7 40 -11z"/>
<path d="M2219 4605 c-3 -2 -22 -5 -43 -7 -39 -2 -62 -18 -27 -18 21 0 23 -6
41 -120 9 -57 8 -67 -8 -78 -15 -12 -12 -13 23 -8 22 3 46 5 53 6 6 0 12 5 12
11 0 5 -4 8 -9 5 -13 -8 -27 15 -30 50 -2 29 0 32 38 38 40 6 81 43 81 72 0
29 -39 54 -83 54 -24 0 -46 -2 -48 -5z m65 -24 c21 -18 20 -54 -2 -74 -16 -14
-45 -18 -56 -6 -10 11 -12 89 -2 93 18 7 43 1 60 -13z"/>
<path d="M2810 4590 c0 -5 7 -10 16 -10 17 0 17 -4 -2 -137 -5 -40 -11 -53
-27 -57 -30 -8 -19 -13 38 -19 28 -4 44 -4 38 -1 -16 7 -16 54 -2 114 6 25 12
54 13 65 0 11 11 22 26 26 26 7 23 9 -25 15 -16 2 -40 6 -52 9 -13 3 -23 1
-23 -5z"/>
<path d="M1980 4564 c-35 -15 -52 -46 -44 -78 7 -27 20 -35 79 -43 75 -10 104
-47 60 -79 -27 -20 -50 -17 -83 11 -17 14 -32 25 -35 25 -3 0 0 -18 5 -40 8
-32 13 -38 24 -29 7 6 21 10 31 9 55 -6 113 30 113 69 0 32 -33 60 -75 66 -70
10 -83 14 -88 34 -6 24 2 37 30 45 24 8 63 -8 76 -30 11 -20 26 -17 22 4 -2 9
-4 24 -4 32 -1 19 -69 21 -111 4z"/>
<path d="M2947 4563 c-4 -3 -7 -18 -7 -31 0 -24 1 -25 20 -7 23 21 69 28 76
12 2 -7 -6 -50 -19 -97 -19 -73 -25 -85 -47 -90 -22 -6 -18 -9 30 -23 57 -17
74 -15 47 6 -15 11 -14 19 10 100 20 66 31 87 44 87 23 0 49 -27 49 -51 0 -28
14 -23 26 10 11 26 9 29 -22 40 -18 7 -41 14 -51 16 -10 3 -43 12 -73 20 -61
17 -74 18 -83 8z"/>
<path d="M1763 4497 c-42 -16 -52 -27 -24 -27 19 0 22 -4 17 -22 -3 -13 -6
-30 -6 -38 0 -8 -4 -21 -9 -29 -8 -12 -16 -10 -50 12 -39 26 -53 47 -31 47 6
0 10 4 10 10 0 9 -87 -24 -103 -39 -5 -5 3 -8 16 -8 36 0 134 -72 147 -107 8
-23 7 -33 -6 -48 -22 -23 -17 -23 47 6 38 18 47 25 31 25 -35 1 -56 58 -42
114 16 60 31 97 41 97 5 0 9 5 9 10 0 12 -6 12 -47 -3z"/>
<path d="M3286 4439 c-15 -25 -15 -29 -2 -29 8 0 18 5 21 10 3 6 17 10 30 10
25 0 95 -29 95 -39 0 -3 -33 -21 -72 -40 -40 -18 -93 -46 -117 -62 -45 -28
-45 -28 -20 -37 14 -6 56 -24 94 -41 l69 -32 18 23 c10 13 18 26 18 31 0 10
-14 9 -26 -3 -16 -16 -56 -14 -99 4 -39 17 -39 18 -20 33 11 8 65 36 120 63
l100 47 -60 30 c-33 17 -76 37 -96 46 -36 15 -36 14 -53 -14z"/>
<path d="M3510 4363 c0 -4 7 -14 15 -23 14 -15 11 -25 -30 -98 -37 -66 -49
-79 -65 -75 -32 9 -23 -3 24 -31 53 -31 60 -32 44 -7 -9 15 -4 31 33 95 41 71
46 77 72 72 15 -3 27 -4 27 -2 0 2 -27 20 -60 39 -33 20 -60 33 -60 30z"/>
<path d="M1410 4330 c-40 -26 -42 -30 -20 -30 20 0 34 -15 71 -78 43 -71 45
-78 31 -95 -15 -16 -14 -17 4 -11 10 4 30 15 44 24 14 10 45 28 70 40 25 12
46 23 48 25 1 1 -3 16 -9 34 -12 35 -21 34 -25 -2 -1 -12 -3 -25 -3 -28 -1 -3
-18 -15 -39 -27 l-38 -21 -47 80 c-26 44 -47 84 -47 89 0 5 8 14 18 19 13 8
14 10 2 10 -8 0 -35 -13 -60 -29z"/>
<path d="M2250 4244 c-235 -33 -478 -118 -672 -236 -213 -128 -420 -329 -560
-542 -203 -309 -297 -645 -284 -1016 6 -190 9 -209 41 -345 67 -280 174 -498
355 -720 58 -71 176 -190 240 -241 19 -16 37 -31 40 -35 3 -3 57 -39 120 -80
99 -65 174 -104 315 -165 34 -14 150 -53 178 -59 10 -2 27 -7 37 -10 130 -41
459 -63 630 -41 297 38 559 138 799 303 112 78 141 102 251 213 149 149 277
337 359 527 41 95 97 260 106 315 3 18 10 56 15 83 16 83 22 144 24 285 11
519 -211 1009 -616 1361 -222 192 -566 354 -838 394 -25 4 -70 11 -100 15 -79
12 -341 8 -440 -6z m333 -433 c51 -27 180 -95 287 -152 107 -56 226 -120 265
-140 l70 -38 0 -60 c0 -51 3 -63 23 -76 25 -18 28 -51 8 -89 -12 -24 -11 -35
5 -89 27 -89 28 -87 -46 -87 -36 0 -65 3 -65 8 0 4 9 36 20 71 18 58 19 66 5
94 -22 44 -19 74 9 92 20 13 24 25 24 65 l1 49 -27 -10 c-15 -6 -40 -18 -57
-28 -16 -10 -113 -62 -215 -116 -102 -54 -234 -124 -295 -156 l-110 -58 -50
28 c-27 15 -104 56 -170 91 -66 34 -176 93 -245 129 -69 37 -150 80 -181 96
-32 17 -59 35 -60 40 -4 9 86 59 480 266 73 39 154 82 179 95 25 13 47 24 49
24 3 0 46 -22 96 -49z m-492 -565 c79 -44 253 -136 327 -174 70 -35 74 -36
100 -21 15 8 86 46 157 83 72 38 158 84 193 103 l62 35 0 -127 0 -127 -32 -30
c-53 -49 -173 -102 -268 -116 -95 -15 -261 -7 -345 17 -94 26 -187 74 -219
112 -22 26 -24 37 -24 148 0 67 2 121 3 121 1 0 22 -11 46 -24z m-102 -122 c3
-2 5 -13 6 -23 1 -17 -7 -19 -110 -19 -62 1 -117 -2 -122 -5 -6 -4 -9 -187 -9
-474 1 -411 3 -468 16 -464 42 11 282 8 348 -5 92 -17 206 -56 282 -94 40 -20
60 -26 60 -18 0 7 1 187 1 399 l0 387 25 5 c17 3 24 0 25 -12 0 -9 1 -190 1
-403 0 -355 1 -386 17 -379 9 4 48 22 86 40 117 55 241 83 390 87 72 2 149 -1
172 -5 l43 -8 2 450 c3 430 4 450 22 453 10 1 20 -5 23 -15 2 -9 15 -18 29
-19 49 -4 62 -18 62 -69 0 -86 -1 -83 36 -83 18 0 38 -6 43 -12 15 -20 11
-927 -4 -936 -8 -5 -1862 -9 -1896 -3 -4 0 -6 214 -5 474 l3 472 42 3 41 3 -2
53 c-3 78 6 96 49 96 21 0 36 5 36 13 1 6 2 30 3 52 0 22 4 45 8 51 4 6 40 12
80 13 40 1 74 3 75 5 5 5 117 -5 122 -10z m-182 -351 c1 -49 2 -197 4 -330 l2
-243 31 6 c107 20 346 -4 428 -42 23 -11 26 -13 8 -9 -123 30 -168 36 -275 36
-113 -1 -156 -4 -197 -17 -20 -6 -20 -15 -17 331 1 110 2 235 2 278 0 42 3 77
7 77 3 0 7 -39 7 -87z m758 -333 c0 -306 0 -311 20 -306 11 3 58 16 103 30
115 35 233 52 317 45 l70 -5 -65 -2 c-36 -1 -94 -7 -130 -13 -75 -11 -247 -61
-293 -84 -20 -10 -33 -12 -37 -5 -11 18 -2 663 9 656 3 -2 6 -144 6 -316z
m-62 -949 c5 -5 -21 -52 -57 -105 l-65 -96 58 0 c40 0 61 -4 64 -13 11 -29 -9
-36 -103 -34 -80 2 -95 5 -95 18 0 9 26 53 58 98 31 45 57 84 57 86 0 2 -24 5
-52 7 -46 3 -53 6 -56 25 -3 19 2 22 35 25 57 5 147 -2 156 -11z m180 10 c33
-1 37 -4 37 -26 0 -22 -4 -25 -35 -25 l-35 0 0 -105 0 -105 -30 2 -30 2 0 103
0 103 -35 0 c-30 0 -35 3 -35 24 0 26 22 33 95 30 17 -1 47 -2 68 -3z m230 0
c13 -1 17 -7 15 -23 -2 -18 -9 -23 -28 -21 -51 3 -88 -16 -100 -52 -23 -69 10
-115 82 -115 41 0 48 -3 48 -19 0 -26 -12 -32 -59 -33 -90 -1 -148 62 -138
149 8 70 77 128 142 118 11 -2 28 -4 38 -4z m-802 -43 c1 -24 1 -46 1 -49 -1
-4 21 -7 48 -6 l50 0 0 49 c0 46 1 48 29 48 l29 0 -2 -127 -1 -128 -27 -3
c-28 -3 -28 -2 -28 52 l0 56 -51 0 -51 0 2 -32 c4 -73 2 -80 -27 -76 l-28 3
-1 128 -1 127 28 0 c27 0 29 -3 30 -42z"/>
<path d="M2448 3790 c-25 -23 -22 -39 6 -46 34 -8 47 2 43 33 -4 31 -25 37
-49 13z"/>
<path d="M2120 3590 c-9 -6 -10 -10 -3 -10 6 0 15 5 18 10 8 12 4 12 -15 0z"/>
<path d="M1995 3528 l-99 -50 34 -19 c19 -10 94 -50 165 -88 72 -39 189 -101
262 -138 l132 -68 53 29 c29 16 74 40 101 54 86 46 41 34 -57 -15 l-96 -48
-73 38 c-39 20 -106 55 -147 78 -41 23 -135 72 -209 110 -125 63 -133 69 -110
79 51 22 166 92 148 89 -2 0 -49 -23 -104 -51z"/>
<path d="M2710 3290 c-9 -6 -10 -10 -3 -10 6 0 15 5 18 10 8 12 4 12 -15 0z"/>
<path d="M1669 2946 c-1 -6 -2 -212 -2 -457 l-2 -447 25 3 c14 2 59 6 100 11
132 15 306 10 435 -11 56 -9 3 12 -75 30 -91 21 -270 27 -363 13 -37 -6 -71
-7 -75 -3 -4 4 -8 196 -8 428 -1 232 -2 427 -3 433 0 6 -8 11 -16 11 -8 0 -15
-5 -16 -11z"/>
<path d="M3268 2522 l-3 -437 -60 4 c-202 15 -431 -5 -470 -41 -9 -9 9 -7 90
9 79 15 323 9 450 -11 l35 -6 0 454 c0 444 0 454 -20 459 -20 5 -20 -1 -22
-431z"/>
<path d="M1580 2376 c0 -334 3 -426 13 -427 63 -4 741 -3 748 2 15 9 -93 39
-197 53 -147 20 -337 13 -486 -19 -16 -4 -29 -1 -34 7 -5 7 -9 191 -9 408 0
368 -1 395 -17 398 -17 3 -18 -22 -18 -422z"/>
<path d="M3359 2783 c0 -10 -1 -187 -1 -393 0 -206 -2 -383 -5 -393 -4 -14
-11 -17 -31 -12 -132 28 -352 39 -460 23 -31 -4 -72 -11 -91 -13 -43 -7 -144
-35 -153 -44 -5 -5 588 -6 747 -2 l31 1 -1 425 c0 399 -1 425 -17 425 -10 0
-18 -8 -19 -17z"/>
<path d="M2700 2040 c-9 -6 -10 -10 -3 -10 6 0 15 5 18 10 8 12 4 12 -15 0z"/>
<path d="M2270 2036 c0 -2 7 -7 16 -10 8 -3 12 -2 9 4 -6 10 -25 14 -25 6z"/>
<path d="M1242 4223 c-62 -30 -92 -97 -72 -158 32 -97 172 -98 230 -3 24 39
25 69 5 112 -29 61 -98 82 -163 49z m88 -30 c81 -68 67 -177 -24 -177 -78 0
-144 118 -93 168 42 42 75 45 117 9z"/>
<path d="M3655 4233 c-27 -7 -54 -32 -72 -67 -19 -37 -10 -86 24 -126 73 -87
206 -59 219 46 11 89 -82 169 -171 147z m114 -42 c31 -24 35 -76 7 -117 -23
-36 -64 -64 -94 -64 -28 0 -69 35 -74 64 -9 46 34 116 82 134 29 11 47 7 79
-17z"/>
<path d="M3890 4095 c0 -3 5 -14 12 -24 10 -16 7 -25 -14 -53 -53 -69 -90 -98
-117 -92 -24 6 -24 4 12 -30 38 -37 74 -52 44 -18 -16 17 -14 22 29 73 26 30
51 56 56 58 10 3 4 -201 -6 -217 -2 -4 -1 -14 4 -22 6 -10 27 3 84 53 42 37
80 67 84 67 5 0 13 -5 20 -12 6 -6 14 -10 16 -7 7 6 -67 89 -79 89 -5 0 -4 -5
3 -12 21 -21 13 -44 -25 -79 -65 -60 -63 -62 -58 63 l4 113 -30 27 c-30 28
-39 33 -39 23z"/>
<path d="M1037 4052 c-36 -37 -52 -67 -23 -43 17 14 45 0 64 -30 10 -15 4 -25
-35 -64 l-47 -45 -30 29 c-25 25 -27 32 -16 45 7 10 8 16 2 16 -12 0 -83 -82
-77 -89 3 -2 11 1 19 8 14 12 15 11 119 -81 35 -31 39 -38 28 -52 -26 -32 7
-15 37 19 35 38 40 50 16 41 -18 -7 -74 32 -74 52 0 8 19 32 42 54 l42 38 28
-27 c20 -19 28 -35 25 -51 -4 -19 -2 -20 12 -10 20 16 61 58 61 63 0 2 -9 1
-19 -2 -13 -3 -29 7 -52 32 -19 21 -46 51 -61 67 -31 34 -33 39 -16 56 7 7 8
12 2 12 -5 0 -27 -17 -47 -38z"/>
<path d="M387 2572 c-26 -28 -22 -67 9 -87 33 -21 66 -13 84 21 12 22 12 29
-1 52 -19 34 -67 42 -92 14z"/>
<path d="M4485 2566 c-21 -31 -11 -69 22 -87 54 -29 112 51 68 95 -25 24 -72
20 -90 -8z"/>
<path d="M783 1620 c-30 -12 -29 -30 2 -30 24 0 68 -36 63 -52 -2 -4 -39 -30
-83 -58 l-80 -51 -18 22 c-10 12 -20 20 -22 17 -4 -4 73 -128 80 -128 2 0 3
12 2 27 -2 24 8 35 72 77 71 48 74 49 88 30 9 -12 13 -33 10 -57 l-5 -37 28
17 29 17 -22 29 c-44 58 -107 164 -107 178 0 11 -8 11 -37 -1z"/>
<path d="M4104 1538 c-26 -40 -54 -84 -63 -97 -15 -23 -15 -24 7 -12 20 11 30
7 90 -35 88 -62 86 -59 73 -83 -7 -12 -8 -21 -3 -21 7 0 77 102 130 191 l22
37 -25 16 c-37 24 -46 20 -30 -18 13 -30 12 -37 -6 -72 -35 -66 -42 -70 -83
-45 -20 13 -36 29 -36 36 0 19 49 55 66 48 31 -12 12 15 -26 36 l-41 23 7 -27
c7 -28 -12 -75 -30 -75 -6 1 -24 11 -40 24 l-28 24 17 30 c18 29 36 43 79 56
19 6 19 7 0 21 -10 8 -22 15 -26 15 -4 0 -28 -33 -54 -72z"/>
<path d="M959 1376 c14 -16 2 -30 -87 -98 -40 -31 -56 -38 -64 -30 -29 29 -26
8 4 -32 35 -47 67 -72 48 -37 -8 16 -3 25 25 50 l36 31 31 -38 c18 -20 39 -45
47 -55 13 -16 11 -20 -17 -48 -26 -26 -34 -29 -51 -19 -30 15 -26 6 15 -40 38
-42 62 -53 45 -21 -9 15 1 29 60 86 58 56 72 65 84 55 33 -27 12 9 -26 45 -35
34 -40 36 -34 17 5 -17 1 -30 -16 -48 -12 -13 -27 -24 -34 -24 -10 0 -85 83
-85 95 0 3 12 17 27 30 21 17 32 21 45 14 10 -5 18 -7 18 -4 0 11 -63 85 -73
85 -5 0 -4 -6 2 -14z"/>
<path d="M3953 1327 c-56 -56 -72 -90 -68 -145 11 -130 159 -135 240 -8 19 30
35 58 35 62 0 3 -11 15 -25 26 -20 15 -24 25 -18 46 5 22 -2 17 -40 -28 -44
-53 -55 -80 -19 -47 16 15 20 15 45 -6 l28 -22 -23 -32 c-46 -65 -127 -69
-173 -9 -35 46 -33 89 5 128 27 27 36 30 70 25 43 -6 50 2 23 25 -32 27 -38
26 -80 -15z"/>
<path d="M3750 1117 c-25 -23 -61 -55 -80 -70 -29 -23 -31 -27 -12 -23 18 3
33 -9 79 -66 48 -60 54 -74 45 -89 -7 -10 -12 -21 -12 -24 0 -7 100 71 157
122 l42 39 -24 29 c-25 31 -28 29 -25 -19 1 -20 -8 -38 -31 -62 -41 -42 -61
-43 -90 -3 l-22 32 22 18 c16 13 31 17 49 12 28 -7 25 4 -11 45 -25 28 -37 28
-30 2 4 -14 -3 -30 -17 -45 l-23 -24 -28 32 c-16 18 -29 34 -29 37 0 3 16 18
36 33 26 21 42 27 60 23 27 -7 32 7 10 30 -8 8 -16 14 -18 14 -2 0 -23 -19
-48 -43z"/>
<path d="M1180 1143 c0 -4 4 -14 9 -22 7 -10 -3 -27 -32 -58 -23 -25 -50 -55
-61 -68 -15 -19 -23 -22 -42 -15 -13 5 -24 7 -24 5 0 -7 78 -77 137 -124 l52
-41 21 22 c26 29 25 41 -2 33 -13 -4 -25 -7 -28 -7 -25 0 -40 6 -69 32 l-34
30 28 40 28 41 24 -22 c12 -13 23 -33 23 -46 0 -29 11 -24 41 19 l23 31 -31
-6 c-23 -4 -35 -1 -48 13 -16 18 -16 21 6 49 13 16 29 30 35 30 14 1 76 -64
68 -72 -4 -3 -4 -14 0 -23 6 -16 8 -15 23 5 8 13 11 26 7 31 -57 51 -154 129
-154 123z"/>
<path d="M1362 929 c-118 -59 -59 -226 81 -234 65 -3 108 34 122 107 6 30 -38
101 -75 119 -54 28 -84 29 -128 8z m136 -34 c26 -22 30 -31 26 -62 -9 -72 -60
-124 -114 -115 -47 8 -82 49 -75 88 2 11 4 24 4 31 1 6 16 28 35 47 41 44 81
48 124 11z"/>
<path d="M3480 919 c-40 -27 -42 -29 -18 -29 22 0 33 -12 71 -77 41 -72 44
-79 29 -95 -8 -10 -11 -18 -5 -18 11 0 193 117 193 124 0 13 -24 56 -32 56 -4
0 -8 -14 -8 -31 0 -33 -9 -45 -53 -74 -34 -22 -40 -18 -97 75 -30 49 -37 67
-29 82 13 24 2 22 -51 -13z"/>
<path d="M1630 830 c0 -5 6 -10 12 -12 10 -4 5 -24 -15 -74 -40 -97 -52 -113
-79 -108 -13 2 13 -13 57 -35 44 -21 81 -37 83 -36 2 2 15 -3 30 -11 24 -12
28 -12 39 9 20 37 17 51 -9 33 -27 -19 -58 -20 -92 -5 -36 17 -38 31 -10 91
42 92 50 103 67 100 35 -6 15 15 -33 35 -27 12 -50 18 -50 13z"/>
<path d="M3273 810 c-24 -11 -43 -22 -43 -26 0 -3 6 -4 13 -1 22 8 33 -4 71
-87 34 -75 35 -80 19 -98 -16 -18 -16 -19 9 -9 39 15 188 91 188 96 0 12 -24
55 -32 55 -4 0 -9 -9 -9 -20 -1 -11 -2 -25 -3 -32 0 -7 -10 -17 -21 -23 -11
-5 -27 -14 -35 -20 -28 -18 -35 -11 -78 74 -40 79 -42 87 -26 98 27 19 -3 15
-53 -7z"/>
<path d="M3085 743 c-85 -23 -125 -119 -79 -190 60 -92 244 -36 244 74 0 39
-23 84 -51 101 -22 14 -87 23 -114 15z m85 -43 c54 -58 47 -146 -14 -170 -67
-25 -121 23 -125 111 -2 40 1 49 25 68 39 30 80 27 114 -9z"/>
<path d="M1858 704 c-32 -17 -58 -62 -58 -99 0 -71 73 -127 157 -121 165 12
140 237 -27 236 -25 -1 -57 -7 -72 -16z m140 -18 c52 -52 11 -186 -57 -186
-90 1 -120 61 -76 154 25 52 96 69 133 32z"/>
<path d="M2864 681 c-62 -8 -101 -32 -120 -76 -17 -42 -18 -66 -2 -99 34 -76
174 -83 223 -12 17 24 19 36 6 36 -5 0 -12 -8 -15 -18 -8 -25 -61 -53 -90 -48
-61 11 -89 45 -88 107 1 45 18 75 52 89 33 13 72 0 94 -31 8 -13 18 -21 20
-18 7 7 -13 79 -22 78 -4 -1 -30 -5 -58 -8z"/>
<path d="M2150 638 c-46 -31 -65 -86 -46 -131 25 -59 78 -86 160 -82 50 2 66
14 66 52 0 13 8 24 21 28 30 10 20 14 -47 20 -58 5 -59 5 -36 -13 22 -17 25
-43 9 -68 -9 -16 -82 -1 -107 21 -60 54 -11 185 70 185 27 0 62 -30 73 -62 11
-31 24 -20 25 21 2 34 -1 39 -21 40 -12 1 -47 4 -77 7 -47 5 -60 2 -90 -18z"/>
<path d="M2370 639 c0 -5 6 -9 14 -9 20 0 87 -117 90 -157 2 -33 -22 -62 -38
-46 -3 3 -6 1 -6 -5 0 -7 23 -10 65 -9 36 1 65 5 65 10 0 4 -9 7 -20 7 -20 0
-24 11 -20 60 2 29 64 128 85 137 30 11 14 21 -30 20 -48 -2 -59 -11 -24 -20
20 -5 20 -7 -11 -52 l-32 -47 -29 44 c-34 50 -35 55 -11 61 10 3 5 5 -13 7
-16 1 -42 3 -57 5 -16 2 -28 -1 -28 -6z"/>
</g>
</svg>
