<svg width="28" height="28" viewBox="0 0 28 28" fill="none" xmlns="http://www.w3.org/2000/svg">
<path d="M11.06 4.04708C9.08414 3.10372 6.32242 2.64161 2.625 2.6252C2.2763 2.62046 1.93444 2.72214 1.645 2.91668C1.40743 3.07726 1.21296 3.29376 1.0787 3.54713C0.94443 3.8005 0.874481 4.08298 0.875003 4.36973V20.0158C0.875003 21.0735 1.6275 21.8714 2.625 21.8714C6.51164 21.8714 10.4103 22.2345 12.7455 24.4417C12.7774 24.472 12.8176 24.4923 12.8609 24.5C12.9043 24.5077 12.949 24.5025 12.9894 24.485C13.0299 24.4675 13.0643 24.4386 13.0884 24.4017C13.1125 24.3648 13.1252 24.3217 13.125 24.2776V5.84192C13.1251 5.71754 13.0984 5.5946 13.0469 5.48139C12.9954 5.36818 12.9202 5.26734 12.8264 5.18567C12.2915 4.72839 11.6974 4.3454 11.06 4.04708ZM26.355 2.91504C26.0654 2.72099 25.7235 2.61987 25.375 2.6252C21.6776 2.64161 18.9159 3.10153 16.94 4.04708C16.3027 4.34486 15.7084 4.72709 15.1731 5.18348C15.0794 5.26527 15.0044 5.36615 14.953 5.47934C14.9016 5.59253 14.875 5.71541 14.875 5.83973V24.2765C14.875 24.3189 14.8875 24.3603 14.9109 24.3955C14.9343 24.4308 14.9676 24.4584 15.0066 24.4748C15.0456 24.4912 15.0886 24.4957 15.1302 24.4878C15.1718 24.4799 15.2101 24.4598 15.2403 24.4302C16.6441 23.0357 19.1078 21.8697 25.3772 21.8703C25.8413 21.8703 26.2864 21.6859 26.6146 21.3577C26.9428 21.0295 27.1272 20.5844 27.1272 20.1203V4.37028C27.1278 4.08296 27.0577 3.79991 26.923 3.54611C26.7884 3.29232 26.5933 3.07558 26.355 2.91504Z" fill="black"/>
</svg>
