<svg width="20" height="20" viewBox="0 0 20 20" fill="none" xmlns="http://www.w3.org/2000/svg">
<mask id="mask0_221_833" style="mask-type:alpha" maskUnits="userSpaceOnUse" x="0" y="0" width="20" height="20">
<rect width="20" height="20" fill="#D9D9D9"/>
</mask>
<g mask="url(#mask0_221_833)">
<path d="M5.62565 18.3334C5.00065 18.3334 4.46246 18.1216 4.01107 17.698C3.55968 17.2744 3.33398 16.7501 3.33398 16.1251V4.50008C3.33398 3.9723 3.49718 3.50008 3.82357 3.08341C4.14996 2.66675 4.57704 2.40286 5.10482 2.29175L13.334 0.666748V14.0001L5.43815 15.5834C5.31315 15.6112 5.20898 15.6772 5.12565 15.7813C5.04232 15.8855 5.00065 16.0001 5.00065 16.1251C5.00065 16.2779 5.06315 16.4063 5.18815 16.5105C5.31315 16.6147 5.45898 16.6667 5.62565 16.6667H15.0006V3.33341H16.6673V18.3334H5.62565ZM7.50065 13.4792L11.6673 12.6667V2.70841L7.50065 3.52091V13.4792ZM5.83398 13.8126V3.85425L5.52148 3.91675C5.36871 3.94453 5.24371 4.0105 5.14648 4.11467C5.04926 4.21883 5.00065 4.3473 5.00065 4.50008V14.0209C5.0701 13.9931 5.14301 13.9688 5.2194 13.948C5.29579 13.9272 5.36871 13.9098 5.43815 13.8959L5.83398 13.8126Z" fill="#CDCDCF"/>
</g>
</svg>
