<svg width="28" height="28" viewBox="0 0 28 28" fill="none" xmlns="http://www.w3.org/2000/svg">
<path d="M3.5 13.9897C3.5 20.5673 8.4455 23.7605 11.5488 25.115C12.39 25.4825 12.8112 25.6668 14 25.6668V9.3335L3.5 12.8335V13.9897Z" fill="black"/>
<path opacity="0.5" d="M16.4512 25.115C19.5545 23.7593 24.5 20.5685 24.5 13.9897V12.8335L14 9.3335V25.6668C15.19 25.6668 15.61 25.4825 16.4512 25.115ZM10.311 3.27266L9.6425 3.50016C6.13433 4.70183 4.38083 5.30266 3.941 5.92916C3.5 6.55683 3.5 8.4235 3.5 12.1533V12.8335L14 9.3335V2.3335C13.0538 2.3335 12.1392 2.64616 10.311 3.27266Z" fill="black"/>
<path d="M18.3575 3.50016L17.689 3.27266C15.8608 2.64616 14.9473 2.3335 14 2.3335V9.3335L24.5 12.8335V12.1533C24.5 8.42233 24.5 6.55683 24.059 5.92916C23.6192 5.30266 21.8657 4.70066 18.3575 3.50016Z" fill="black"/>
</svg>
